<?xml version="1.0" standalone="no"?>
<!DOCTYPE svg PUBLIC "-//W3C//DTD SVG 20010904//EN"
 "http://www.w3.org/TR/2001/REC-SVG-20010904/DTD/svg10.dtd">
<svg version="1.0" xmlns="http://www.w3.org/2000/svg"
 width="500.000000pt" height="500.000000pt" viewBox="0 0 500.000000 500.000000"
 preserveAspectRatio="xMidYMid meet">
<metadata>
Created by potrace 1.11, written by Peter Selinger 2001-2013
</metadata>
<g transform="translate(0.000000,500.000000) scale(0.100000,-0.100000)"
fill="#000000" stroke="none">
<path d="M830 3494 c-47 -80 -94 -163 -106 -183 -12 -20 -90 -153 -174 -296
-84 -143 -160 -273 -169 -290 -9 -16 -42 -74 -74 -127 l-58 -97 333 -570 333
-571 666 0 666 0 25 37 c13 21 69 116 123 210 55 95 102 173 105 173 3 0 59
-94 126 -208 l120 -207 670 -2 669 -3 86 148 c47 81 197 337 333 570 l247 422
-333 570 -333 570 -672 0 c-537 0 -672 -3 -675 -13 -4 -18 -232 -407 -238
-407 -3 0 -41 62 -84 138 -44 75 -98 169 -121 207 l-42 70 -669 2 -669 3 -85
-146z m1170 -462 l55 -92 445 0 445 0 55 92 55 92 363 1 363 0 137 -235 c75
-129 142 -244 148 -255 6 -11 25 -43 42 -71 18 -28 32 -57 32 -64 0 -6 -31
-64 -69 -128 -38 -65 -117 -200 -176 -302 -60 -102 -110 -187 -112 -190 -2 -2
-166 -4 -365 -5 l-360 0 -18 25 c-9 14 -28 45 -42 70 -14 25 -34 60 -44 77
l-19 33 -435 0 -435 0 -60 -103 -60 -102 -358 0 c-198 0 -362 2 -366 5 -7 5
-84 131 -133 220 -11 19 -67 115 -125 213 -57 98 -103 184 -101 192 7 31 354
614 367 617 8 2 172 3 365 3 l351 -1 55 -92z"/>
</g>
</svg>
